400 0 1 0
7 Unknown 13 ACIS 5.0.1 NT 24 Mon Jun 17 15:19:34 2002
-1 9.9999999999999995e-007 1e-010     
-0 body $-1 $2 $-1 $1 #                                                                                  
-1 transform $-1 1 0 0 0 1 0 0 0 1 0 0 0 1 0 0 0 #
-2 lump $-1 $-1 $3 $0 #
-3 shell $-1 $-1 $-1 $4 $-1 $2 #
-4 face $-1 $19 $6 $3 $-1 $5 forward single #
-5 spline-surface $-1 forward { exactsur nubs 1 1 open open none none 2 2
        0 1 13.696542249448278 1 
        0 1 16.034976292037008 1 
        -10.448866784315445 -9.6921443087124359 -6.7945205479452051 
        -10.448866784315445 4.0043979407358439 -6.7945205479452051 
        5.5861095077215648 -9.6921443087124359 -6.7945205479452051 
        5.5861095077215648 4.0043979407358439 -6.7945205479452051 
        0
        0
        0
        0
        0
        0
        0
        F 0 F 13.696542249448278 F 0 F 16.034976292037008 } F 0 F 13.696542249448278 F 0 F 16.034976292037008 #
-6 loop $-1 $-1 $7 $4 #
-7 coedge $-1 $9 $17 $63 $123 reversed $6 $8 #
-8 pcurve $-1 0 forward { exppc nubs 1 open 2
        -8.1004362899110074 1 0 1 
        13.696542249448278 7.9345400021260009 
        13.696542249448278 16.034976292037008 
        0
        spline 0 { ref 0 } F 0 F 13.696542249448278 F 0 F 16.034976292037008 
        } 0 0 #
-9 coedge $-1 $11 $7 $44 $121 reversed $6 $10 #
-10 pcurve $-1 0 forward { exppc nubs 1 open 2
        -13.696542249448278 1 0 1 
        13.696542249448278 16.034976292037008 
        0 16.034976292037008 
        0
        spline 0 { ref 0 } F 0 F 13.696542249448278 F 0 F 16.034976292037008 
        } 0 0 #
-11 coedge $-1 $13 $9 $33 $119 reversed $6 $12 #
-12 pcurve $-1 0 forward { exppc nubs 1 open 2
        -16.034976292037008 1 0 1 
        0 16.034976292037008 
        0 0 
        0
        spline 0 { ref 0 } F 0 F 13.696542249448278 F 0 F 16.034976292037008 
        } 0 0 #
-13 coedge $-1 $15 $11 $74 $117 reversed $6 $14 #
-14 pcurve $-1 0 forward { exppc nubs 1 open 2
        -13.696542249448278 1 -10.466399387469693 1 
        0 0 
        3.2301428619785852 0 
        0
        spline 0 { ref 0 } F 0 F 13.696542249448278 F 0 F 16.034976292037008 
        } 0 0 #
-15 coedge $-1 $17 $13 $111 $115 reversed $6 $16 #
-16 pcurve $-1 0 forward { exppc nurbs 2 open 2
        -13.037618700126702 2 0 2 
        3.2301428619785852 0 1 
        7.9105397064324396 4.537483963707178 1 
        12.59093655088629 9.0749679274143524 1 
        0
        spline 0 { ref 0 } F 0 F 13.696542249448278 F 0 F 16.034976292037008 
        } 0 0 #
-17 coedge $-1 $7 $15 $93 $143 reversed $6 $18 #
-18 pcurve $-1 0 forward { exppc nurbs 2 open 2
        -1.5883764709508346 2 0 2 
        12.59093655088629 9.0749679274143524 1 
        13.143739400167281 8.5047539647701793 1.0000000000000062 
        13.696542249448278 7.9345400021260009 1.0000000000000124 
        0
        spline 0 { ref 0 } F 0 F 13.696542249448278 F 0 F 16.034976292037008 
        } 0 0 #
-19 face $-1 $30 $21 $3 $-1 $20 forward single #
-20 spline-surface $-1 forward { exactsur nubs 1 1 open open none none 2 2
        0 1 16.034976292037008 1 
        0 1 13.696542249448278 1 
        -10.448866784315445 -9.6921443087124359 14.420389553790777 
        5.5861095077215648 -9.6921443087124359 14.420389553790777 
        -10.448866784315445 4.0043979407358439 14.420389553790777 
        5.5861095077215648 4.0043979407358439 14.420389553790777 
        0
        0
        0
        0
        0
        0
        0
        F 0 F 16.034976292037008 F 0 F 13.696542249448278 } F 0 F 16.034976292037008 F 0 F 13.696542249448278 #
-21 loop $-1 $-1 $22 $19 #
-22 coedge $-1 $24 $28 $37 $125 forward $21 $23 #
-23 pcurve $-1 0 forward { exppc nubs 1 open 2
        0 1 16.034976292037008 1 
        0 0 
        16.034976292037008 0 
        0
        spline 0 { ref 7 } F 0 F 16.034976292037008 F 0 F 13.696542249448278 
        } 0 0 #
-24 coedge $-1 $26 $22 $48 $127 forward $21 $25 #
-25 pcurve $-1 0 forward { exppc nubs 1 open 2
        0 1 13.696542249448278 1 
        16.034976292037008 0 
        16.034976292037008 13.696542249448278 
        0
        spline 0 { ref 7 } F 0 F 16.034976292037008 F 0 F 13.696542249448278 
        } 0 0 #
-26 coedge $-1 $28 $24 $59 $129 forward $21 $27 #
-27 pcurve $-1 0 forward { exppc nubs 1 open 2
        0 1 16.034976292037008 1 
        16.034976292037008 13.696542249448278 
        0 13.696542249448278 
        0
        spline 0 { ref 7 } F 0 F 16.034976292037008 F 0 F 13.696542249448278 
        } 0 0 #
-28 coedge $-1 $22 $26 $78 $131 forward $21 $29 #
-29 pcurve $-1 0 forward { exppc nubs 1 open 2
        0 1 13.696542249448278 1 
        0 13.696542249448278 
        0 0 
        0
        spline 0 { ref 7 } F 0 F 16.034976292037008 F 0 F 13.696542249448278 
        } 0 0 #
-30 face $-1 $41 $32 $3 $-1 $31 forward single #
-31 spline-surface $-1 forward { exactsur nubs 1 1 open open none none 2 2
        0 1 16.034976292037008 1 
        0 1 21.214910101735981 1 
        -10.448866784315445 -9.6921443087124359 -6.7945205479452051 
        5.5861095077215648 -9.6921443087124359 -6.7945205479452051 
        -10.448866784315445 -9.6921443087124359 14.420389553790777 
        5.5861095077215648 -9.6921443087124359 14.420389553790777 
        0
        0
        0
        0
        0
        0
        0
        F 0 F 16.034976292037008 F 0 F 21.214910101735981 } F 0 F 16.034976292037008 F 0 F 21.214910101735981 #
-32 loop $-1 $-1 $33 $30 #
-33 coedge $-1 $35 $39 $11 $119 forward $32 $34 #
-34 pcurve $-1 0 forward { exppc nubs 1 open 2
        0 1 16.034976292037008 1 
        0 0 
        16.034976292037008 0 
        0
        spline 0 { ref 12 } F 0 F 16.034976292037008 F 0 F 21.214910101735981 
        } 0 0 #
-35 coedge $-1 $37 $33 $50 $133 forward $32 $36 #
-36 pcurve $-1 0 forward { exppc nubs 1 open 2
        0 1 21.214910101735981 1 
        16.034976292037008 0 
        16.034976292037008 21.214910101735981 
        0
        spline 0 { ref 12 } F 0 F 16.034976292037008 F 0 F 21.214910101735981 
        } 0 0 #
-37 coedge $-1 $39 $35 $22 $125 reversed $32 $38 #
-38 pcurve $-1 0 forward { exppc nubs 1 open 2
        -16.034976292037008 1 0 1 
        16.034976292037008 21.214910101735981 
        0 21.214910101735981 
        0
        spline 0 { ref 12 } F 0 F 16.034976292037008 F 0 F 21.214910101735981 
        } 0 0 #
-39 coedge $-1 $33 $37 $76 $141 reversed $32 $40 #
-40 pcurve $-1 0 forward { exppc nubs 1 open 2
        -21.214910101735981 1 0 1 
        0 21.214910101735981 
        0 0 
        0
        spline 0 { ref 12 } F 0 F 16.034976292037008 F 0 F 21.214910101735981 
        } 0 0 #
-41 face $-1 $52 $43 $3 $-1 $42 forward single #
-42 spline-surface $-1 forward { exactsur nubs 1 1 open open none none 2 2
        0 1 13.696542249448278 1 
        0 1 21.214910101735981 1 
        5.5861095077215648 -9.6921443087124359 -6.7945205479452051 
        5.5861095077215648 4.0043979407358439 -6.7945205479452051 
        5.5861095077215648 -9.6921443087124359 14.420389553790777 
        5.5861095077215648 4.0043979407358439 14.420389553790777 
        0
        0
        0
        0
        0
        0
        0
        F 0 F 13.696542249448278 F 0 F 21.214910101735981 } F 0 F 13.696542249448278 F 0 F 21.214910101735981 #
-43 loop $-1 $-1 $44 $41 #
-44 coedge $-1 $46 $50 $9 $121 forward $43 $45 #
-45 pcurve $-1 0 forward { exppc nubs 1 open 2
        0 1 13.696542249448278 1 
        0 0 
        13.696542249448278 0 
        0
        spline 0 { ref 17 } F 0 F 13.696542249448278 F 0 F 21.214910101735981 
        } 0 0 #
-46 coedge $-1 $48 $44 $61 $135 forward $43 $47 #
-47 pcurve $-1 0 forward { exppc nubs 1 open 2
        0 1 21.214910101735981 1 
        13.696542249448278 0 
        13.696542249448278 21.214910101735981 
        0
        spline 0 { ref 17 } F 0 F 13.696542249448278 F 0 F 21.214910101735981 
        } 0 0 #
-48 coedge $-1 $50 $46 $24 $127 reversed $43 $49 #
-49 pcurve $-1 0 forward { exppc nubs 1 open 2
        -13.696542249448278 1 0 1 
        13.696542249448278 21.214910101735981 
        0 21.214910101735981 
        0
        spline 0 { ref 17 } F 0 F 13.696542249448278 F 0 F 21.214910101735981 
        } 0 0 #
-50 coedge $-1 $44 $48 $35 $133 reversed $43 $51 #
-51 pcurve $-1 0 forward { exppc nubs 1 open 2
        -21.214910101735981 1 0 1 
        0 21.214910101735981 
        0 0 
        0
        spline 0 { ref 17 } F 0 F 13.696542249448278 F 0 F 21.214910101735981 
        } 0 0 #
-52 face $-1 $65 $54 $3 $-1 $53 forward single #
-53 spline-surface $-1 forward { exactsur nubs 1 1 open open none none 2 2
        0 1 16.034976292037008 1 
        0 1 21.214910101735981 1 
        5.5861095077215648 4.0043979407358439 -6.7945205479452051 
        -10.448866784315445 4.0043979407358439 -6.7945205479452051 
        5.5861095077215648 4.0043979407358439 14.420389553790777 
        -10.448866784315445 4.0043979407358439 14.420389553790777 
        0
        0
        0
        0
        0
        0
        0
        F 0 F 16.034976292037008 F 0 F 21.214910101735981 } F 0 F 16.034976292037008 F 0 F 21.214910101735981 #
-54 loop $-1 $-1 $55 $52 #
-55 coedge $-1 $57 $63 $91 $145 reversed $54 $56 #
-56 pcurve $-1 0 forward { exppc nurbs 2 open 2
        -9.6658793200018494 2 0 2 
        8.1004362899110056 0 1 
        8.1004362899110056 5.8080803911875156 0.76876588011964375 
        16.034976292037015 7.6056279154165836 0.90264242011358253 
        0
        spline 0 { ref 22 } F 0 F 16.034976292037008 F 0 F 21.214910101735981 
        } 0 0 #
-57 coedge $-1 $59 $55 $80 $137 forward $54 $58 #
-58 pcurve $-1 0 forward { exppc nubs 1 open 2
        7.6056279154165836 1 21.214910101735981 1 
        16.034976292037008 7.6056279154165836 
        16.034976292037008 21.214910101735981 
        0
        spline 0 { ref 22 } F 0 F 16.034976292037008 F 0 F 21.214910101735981 
        } 0 0 #
-59 coedge $-1 $61 $57 $26 $129 reversed $54 $60 #
-60 pcurve $-1 0 forward { exppc nubs 1 open 2
        -16.034976292037008 1 0 1 
        16.034976292037008 21.214910101735981 
        0 21.214910101735981 
        0
        spline 0 { ref 22 } F 0 F 16.034976292037008 F 0 F 21.214910101735981 
        } 0 0 #
-61 coedge $-1 $63 $59 $46 $135 reversed $54 $62 #
-62 pcurve $-1 0 forward { exppc nubs 1 open 2
        -21.214910101735981 1 0 1 
        0 21.214910101735981 
        0 0 
        0
        spline 0 { ref 22 } F 0 F 16.034976292037008 F 0 F 21.214910101735981 
        } 0 0 #
-63 coedge $-1 $55 $61 $7 $123 forward $54 $64 #
-64 pcurve $-1 0 forward { exppc nubs 1 open 2
        0 1 8.1004362899110074 1 
        0 0 
        8.1004362899110056 0 
        0
        spline 0 { ref 22 } F 0 F 16.034976292037008 F 0 F 21.214910101735981 
        } 0 0 #
-65 face $-1 $82 $67 $3 $-1 $66 forward single #
-66 spline-surface $-1 forward { exactsur nubs 1 1 open open none none 2 2
        0 1 13.696542249448278 1 
        0 1 21.214910101735981 1 
        -10.448866784315445 4.0043979407358439 -6.7945205479452051 
        -10.448866784315445 -9.6921443087124359 -6.7945205479452051 
        -10.448866784315445 4.0043979407358439 14.420389553790777 
        -10.448866784315445 -9.6921443087124359 14.420389553790777 
        0
        0
        0
        0
        0
        0
        0
        F 0 F 13.696542249448278 F 0 F 21.214910101735981 } F 0 F 13.696542249448278 F 0 F 21.214910101735981 #
-67 loop $-1 $-1 $68 $65 #
-68 coedge $-1 $70 $80 $89 $147 reversed $67 $69 #
-69 pcurve $-1 0 forward { exppc nurbs 2 open 3
        -2.5774284935793048 2 -2.1616381814003978 1 0 2 
        0 7.6056279154165836 0.90264242011358253 
        0.28002933764086713 7.6710658728828207 0.90840129279496629 
        1.9811166824077824 7.998326278403356 0.94828773608402539 
        3.4477239101199211 7.998326278403356 1 
        0
        spline 0 { ref 28 } F 0 F 13.696542249448278 F 0 F 21.214910101735981 
        } 0 0 #
-70 coedge $-1 $72 $68 $102 $153 reversed $67 $71 #
-71 pcurve $-1 0 forward { exppc nurbs 2 open 3
        -5.3540161218161728 2 -3.1923779404158021 1 0 2 
        3.4477239101199211 7.998326278403356 1 
        4.9143311378320389 7.998326278403356 0.94828773608402628 
        8.6233927968601272 7.2847656100647775 0.86543280492162289 
        10.466399387469689 6.2111798512166212 0.85585618127244689 
        0
        spline 0 { ref 28 } F 0 F 13.696542249448278 F 0 F 21.214910101735981 
        } 0 0 #
-72 coedge $-1 $74 $70 $113 $139 reversed $67 $73 #
-73 pcurve $-1 0 forward { exppc nubs 1 open 2
        -6.2111798512166212 1 0 1 
        10.466399387469689 6.2111798512166212 
        10.466399387469693 0 
        0
        spline 0 { ref 28 } F 0 F 13.696542249448278 F 0 F 21.214910101735981 
        } 0 0 #
-74 coedge $-1 $76 $72 $13 $117 forward $67 $75 #
-75 pcurve $-1 0 forward { exppc nubs 1 open 2
        10.466399387469693 1 13.696542249448278 1 
        10.466399387469693 0 
        13.696542249448278 0 
        0
        spline 0 { ref 28 } F 0 F 13.696542249448278 F 0 F 21.214910101735981 
        } 0 0 #
-76 coedge $-1 $78 $74 $39 $141 forward $67 $77 #
-77 pcurve $-1 0 forward { exppc nubs 1 open 2
        0 1 21.214910101735981 1 
        13.696542249448278 0 
        13.696542249448278 21.214910101735981 
        0
        spline 0 { ref 28 } F 0 F 13.696542249448278 F 0 F 21.214910101735981 
        } 0 0 #
-78 coedge $-1 $80 $76 $28 $131 reversed $67 $79 #
-79 pcurve $-1 0 forward { exppc nubs 1 open 2
        -13.696542249448278 1 0 1 
        13.696542249448278 21.214910101735981 
        0 21.214910101735981 
        0
        spline 0 { ref 28 } F 0 F 13.696542249448278 F 0 F 21.214910101735981 
        } 0 0 #
-80 coedge $-1 $68 $78 $57 $137 reversed $67 $81 #
-81 pcurve $-1 0 forward { exppc nubs 1 open 2
        -21.214910101735981 1 -7.6056279154165836 1 
        0 21.214910101735981 
        0 7.6056279154165836 
        0
        spline 0 { ref 28 } F 0 F 13.696542249448278 F 0 F 21.214910101735981 
        } 0 0 #
-82 face $-1 $95 $84 $3 $-1 $83 forward single #
-83 spline-surface $-1 forward { exactsur nurbs 1 2 both open open none none 2 2
        19.381011321466982 1 30.475720836136453 1 
        36.729923440743491 2 48.973231254324645 2 
        -9.3397160198292468 10.621378346691991 -6.7945205479452042 1 
        -1.3738988569010946 2.8987922421738563 -6.7945205479452042 1 
        -9.3397160198292468 10.621378346691991 1.2038057304581491 0.70710678118654746 
        -1.3738988569010946 2.8987922421738563 1.20380573045815 0.70710678118654746 
        -14.907032883360502 4.8787129205298356 1.2038057304581509 1 
        -6.9412157204323481 -2.8438731839882969 1.2038057304581509 1 
        0
        0
        0
        0
        0
        0
        0
        F 19.381011321466982 F 30.475720836136453 F 36.729923440743491 F 48.973231254324645 } F 19.381011321466982 F 30.475720836136453 F 36.729923440743491 F 48.973231254324645 #
-84 loop $-1 $-1 $85 $82 #
-85 coedge $-1 $87 $93 $109 $151 reversed $84 $86 #
-86 pcurve $-1 0 forward { exppc nubs 1 open 2
        -12.243307813581154 1 0 1 
        30.47572083613645 36.729923440743491 
        30.475720836136453 48.973231254324645 
        0
        spline 0 { ref 36 } F 19.381011321466982 F 30.475720836136453 F 36.729923440743491 F 48.973231254324645 
        } 0 0 #
-87 coedge $-1 $89 $85 $98 $149 reversed $84 $88 #
-88 pcurve $-1 0 forward { exppc nubs 1 open 2
        -30.475720836136453 1 -25.590299938740536 1 
        30.475720836136453 48.973231254324645 
        25.590299938740536 48.973231254324645 
        0
        spline 0 { ref 36 } F 19.381011321466982 F 30.475720836136453 F 36.729923440743491 F 48.973231254324645 
        } 0 0 #
-89 coedge $-1 $91 $87 $68 $147 forward $84 $90 #
-90 pcurve $-1 0 forward { exppc nubs 3 open 3
        0 3 2.1616381814003978 3 2.5774284935793048 3 
        25.590299938740536 48.973231254324645 
        24.934109809200521 48.240605937520648 
        24.259014444518794 47.526018017251808 
        23.583390514588313 46.811593072735306 
        23.45236733718426 46.673045247383861 
        23.321343443184883 46.534498210266065 
        23.190476425984038 46.395802760355288 
        0
        spline 0 { ref 36 } F 19.381011321466982 F 30.475720836136453 F 36.729923440743491 F 48.973231254324645 
        } 0 0 #
-91 coedge $-1 $93 $89 $55 $145 forward $84 $92 #
-92 pcurve $-1 0 forward { exppc nubs 3 open 5
        0 3 2.7452995704148382 2 4.0364099454508153 2 5.2495522767266714 2 9.6658793200018494 3 
        23.190476425984038 46.395802760355288 
        23.983198010350545 45.606183844009344 
        24.771347372914736 44.813866848684917 
        25.869414306731311 43.586852848960696 
        26.209835362888708 43.186384084204221 
        26.838768861275174 42.380890393701947 
        27.126726249845525 41.980828151374268 
        28.360415186179356 40.041301855821366 
        28.887344365185616 38.563417277623117 
        28.887344365185616 36.729923440743491 
        0
        spline 0 { ref 36 } F 19.381011321466982 F 30.475720836136453 F 36.729923440743491 F 48.973231254324645 
        } 0 0 #
-93 coedge $-1 $85 $91 $17 $143 forward $84 $94 #
-94 pcurve $-1 0 forward { exppc nubs 1 open 2
        0 1 1.5883764709508346 1 
        28.887344365185616 36.729923440743491 
        30.47572083613645 36.729923440743491 
        0
        spline 0 { ref 36 } F 19.381011321466982 F 30.475720836136453 F 36.729923440743491 F 48.973231254324645 
        } 0 0 #
-95 face $-1 $104 $97 $3 $-1 $96 forward single #
-96 spline-surface $-1 forward { exactsur nurbs 1 2 both open open none none 2 2
        21.78083483422348 1 30.475720836136453 1 
        0 2 6.8844295985160118 2 
        -13.183999459129049 3.2082912039085016 1.2038057304581509 1 
        -6.9412157204323481 -2.8438731839882969 1.2038057304581509 1 
        -15.834053196064206 0.47477120754231983 1.2038057304581506 0.83530572166394279 
        -9.5912694573675061 -5.5773931803544787 1.2038057304581506 0.83530572166394279 
        -17.505052058093639 -1.2488575399053676 -1.7511533425657022 0.85582710264917861 
        -11.262268319396945 -7.3010219278021635 -1.7511533425657022 0.85582710264917861 
        0
        0
        0
        0
        0
        0
        0
        F 21.78083483422348 F 30.475720836136453 F 0 F 6.8844295985160118 } F 21.78083483422348 F 30.475720836136453 F 0 F 6.8844295985160118 #
-97 loop $-1 $-1 $98 $95 #
-98 coedge $-1 $100 $102 $87 $149 forward $97 $99 #
-99 pcurve $-1 0 forward { exppc nubs 1 open 2
        25.590299938740536 1 30.475720836136453 1 
        25.590299938740536 0 
        30.475720836136453 0 
        0
        spline 0 { ref 42 } F 21.78083483422348 F 30.475720836136453 F 0 F 6.8844295985160118 
        } 0 0 #
-100 coedge $-1 $102 $98 $107 $155 reversed $97 $101 #
-101 pcurve $-1 0 forward { exppc nubs 1 open 2
        -48.973231254324645 1 -43.619215132508472 1 
        30.475720836136453 0 
        30.475720836136453 5.3540161218183666 
        0
        spline 0 { ref 42 } F 21.78083483422348 F 30.475720836136453 F 0 F 6.8844295985160118 
        } 0 0 #
-102 coedge $-1 $98 $100 $70 $153 forward $97 $103 #
-103 pcurve $-1 0 forward { exppc nubs 3 open 3
        0 3 3.1923779404158021 3 5.3540161218161728 3 
        30.475720836136453 5.3540161218183666 
        29.569685507607339 4.2391488557145482 
        28.582266337607898 3.2032668796416375 
        27.59720936289272 2.1616381815893146 
        26.921585432962246 1.4472132370728243 
        26.246490068280533 0.73262531680399012 
        25.590299938740536 0 
        0
        spline 0 { ref 42 } F 21.78083483422348 F 30.475720836136453 F 0 F 6.8844295985160118 
        } 0 0 #
-104 face $-1 $-1 $106 $3 $-1 $105 forward single #
-105 spline-surface $-1 forward { exactsur nubs 1 1 open open none none 2 2
        -9.9979078480041945 1 0 1 
        -7.9983262784033577 1 7.9983262784033569 1 
        -12.508532583963609 -8.5865386101504555 -8.7941021175460428 
        -12.508532583963609 -8.5865386101504555 1.2038057304581509 
        -1.373898856901091 2.8987922421738563 -8.7941021175460428 
        -1.373898856901091 2.8987922421738546 1.2038057304581509 
        0
        0
        0
        0
        0
        0
        0
        F -9.9979078480041945 F 0 F -7.9983262784033577 F 7.9983262784033569 } F -9.9979078480041945 F 0 F -7.9983262784033577 F 7.9983262784033569 #
-106 loop $-1 $-1 $107 $104 #
-107 coedge $-1 $109 $113 $100 $155 forward $106 $108 #
-108 pcurve $-1 0 forward { exppc nurbs 2 open 2
        43.619215132508472 2 48.973231254324645 2 
        -1.7871464271867346 -5.0392924217233466 0.85585618127244689 
        0 -2.8365451011144103 0.87191737401567693 
        0 0 1 
        0
        spline 0 { ref 46 } F -9.9979078480041945 F 0 F -7.9983262784033577 F 7.9983262784033569 
        } 0 0 #
-109 coedge $-1 $111 $107 $85 $151 forward $106 $110 #
-110 pcurve $-1 0 forward { exppc nurbs 2 open 2
        0 2 12.243307813581154 2 
        0 0 1 
        0 7.9983262784033569 0.70710678118654746 
        -7.9983262784033551 7.9983262784033569 1 
        0
        spline 0 { ref 46 } F -9.9979078480041945 F 0 F -7.9983262784033577 F 7.9983262784033569 
        } 0 0 #
-111 coedge $-1 $113 $109 $15 $115 forward $106 $112 #
-112 pcurve $-1 0 forward { exppc nubs 1 open 2
        0 1 13.037618700126702 1 
        -7.9983262784033551 7.9983262784033569 
        -7.998326278403356 -5.0392924217233457 
        0
        spline 0 { ref 46 } F -9.9979078480041945 F 0 F -7.9983262784033577 F 7.9983262784033569 
        } 0 0 #
-113 coedge $-1 $107 $111 $72 $139 forward $106 $114 #
-114 pcurve $-1 0 forward { exppc nubs 1 open 2
        0 1 6.2111798512166212 1 
        -7.998326278403356 -5.0392924217233457 
        -1.7871464271867346 -5.0392924217233466 
        0
        spline 0 { ref 46 } F -9.9979078480041945 F 0 F -7.9983262784033577 F 7.9983262784033569 
        } 0 0 #
-115 edge $-1 $159 $161 $15 $116 forward #
-116 intcurve-curve $-1 forward { exactcur nubs 1 open 2
        0 1 13.037618700126702 1 
        -1.3738988569010946 2.8987922421738563 -6.7945205479452051 
        -10.448866784315443 -6.4620014467338489 -6.7945205479452051 
        0
        null_surface
        null_surface
        nullbs
        nullbs
        I I
        0
        0
        0
        F 0 F 13.037618700126702 } F 0 F 13.037618700126702 #
-117 edge $-1 $161 $163 $13 $118 forward #
-118 intcurve-curve $-1 forward { exactcur nubs 1 open 2
        10.466399387469693 1 13.696542249448278 1 
        -10.448866784315443 -6.4620014467338489 -6.7945205479452051 
        -10.448866784315445 -9.6921443087124359 -6.7945205479452051 
        0
        null_surface
        null_surface
        nullbs
        nullbs
        I I
        0
        0
        0
        F 10.466399387469693 F 13.696542249448278 } F 10.466399387469693 F 13.696542249448278 #
-119 edge $-1 $163 $165 $11 $120 forward #
-120 intcurve-curve $-1 forward { exactcur nubs 1 open 2
        0 1 16.034976292037008 1 
        -10.448866784315445 -9.6921443087124359 -6.7945205479452051 
        5.5861095077215648 -9.6921443087124359 -6.7945205479452051 
        0
        null_surface
        null_surface
        nullbs
        nullbs
        I I
        0
        0
        0
        F 0 F 16.034976292037008 } F 0 F 16.034976292037008 #
-121 edge $-1 $165 $167 $9 $122 forward #
-122 intcurve-curve $-1 forward { exactcur nubs 1 open 2
        0 1 13.696542249448278 1 
        5.5861095077215648 -9.6921443087124359 -6.7945205479452051 
        5.5861095077215648 4.0043979407358439 -6.7945205479452051 
        0
        null_surface
        null_surface
        nullbs
        nullbs
        I I
        0
        0
        0
        F 0 F 13.696542249448278 } F 0 F 13.696542249448278 #
-123 edge $-1 $167 $157 $7 $124 forward #
-124 intcurve-curve $-1 forward { exactcur nubs 1 open 2
        0 1 8.1004362899110074 1 
        5.5861095077215648 4.0043979407358439 -6.7945205479452051 
        -2.5143267821894408 4.0043979407358421 -6.7945205479452042 
        0
        null_surface
        null_surface
        nullbs
        nullbs
        I I
        0
        0
        0
        F 0 F 8.1004362899110074 } F 0 F 8.1004362899110074 #
-125 edge $-1 $169 $171 $22 $126 forward #
-126 intcurve-curve $-1 forward { exactcur nubs 1 open 2
        0 1 16.034976292037008 1 
        -10.448866784315445 -9.6921443087124359 14.420389553790777 
        5.5861095077215648 -9.6921443087124359 14.420389553790777 
        0
        null_surface
        null_surface
        nullbs
        nullbs
        I I
        0
        0
        0
        F 0 F 16.034976292037008 } F 0 F 16.034976292037008 #
-127 edge $-1 $171 $173 $24 $128 forward #
-128 intcurve-curve $-1 forward { exactcur nubs 1 open 2
        0 1 13.696542249448278 1 
        5.5861095077215648 -9.6921443087124359 14.420389553790777 
        5.5861095077215648 4.0043979407358439 14.420389553790777 
        0
        null_surface
        null_surface
        nullbs
        nullbs
        I I
        0
        0
        0
        F 0 F 13.696542249448278 } F 0 F 13.696542249448278 #
-129 edge $-1 $173 $175 $26 $130 forward #
-130 intcurve-curve $-1 forward { exactcur nubs 1 open 2
        0 1 16.034976292037008 1 
        5.5861095077215648 4.0043979407358439 14.420389553790777 
        -10.448866784315445 4.0043979407358439 14.420389553790777 
        0
        null_surface
        null_surface
        nullbs
        nullbs
        I I
        0
        0
        0
        F 0 F 16.034976292037008 } F 0 F 16.034976292037008 #
-131 edge $-1 $175 $169 $28 $132 forward #
-132 intcurve-curve $-1 forward { exactcur nubs 1 open 2
        0 1 13.696542249448278 1 
        -10.448866784315445 4.0043979407358439 14.420389553790777 
        -10.448866784315445 -9.6921443087124359 14.420389553790777 
        0
        null_surface
        null_surface
        nullbs
        nullbs
        I I
        0
        0
        0
        F 0 F 13.696542249448278 } F 0 F 13.696542249448278 #
-133 edge $-1 $165 $171 $35 $134 forward #
-134 intcurve-curve $-1 forward { exactcur nubs 1 open 2
        0 1 21.214910101735981 1 
        5.5861095077215648 -9.6921443087124359 -6.7945205479452051 
        5.5861095077215648 -9.6921443087124359 14.420389553790777 
        0
        null_surface
        null_surface
        nullbs
        nullbs
        I I
        0
        0
        0
        F 0 F 21.214910101735981 } F 0 F 21.214910101735981 #
-135 edge $-1 $167 $173 $46 $136 forward #
-136 intcurve-curve $-1 forward { exactcur nubs 1 open 2
        0 1 21.214910101735981 1 
        5.5861095077215648 4.0043979407358439 -6.7945205479452051 
        5.5861095077215648 4.0043979407358439 14.420389553790777 
        0
        null_surface
        null_surface
        nullbs
        nullbs
        I I
        0
        0
        0
        F 0 F 21.214910101735981 } F 0 F 21.214910101735981 #
-137 edge $-1 $177 $175 $57 $138 forward #
-138 intcurve-curve $-1 forward { exactcur nubs 1 open 2
        7.6056279154165836 1 21.214910101735981 1 
        -10.448866784315445 4.0043979407358385 0.81110736747137846 
        -10.448866784315445 4.0043979407358439 14.420389553790777 
        0
        null_surface
        null_surface
        nullbs
        nullbs
        I I
        0
        0
        0
        F 7.6056279154165836 F 21.214910101735981 } F 7.6056279154165836 F 21.214910101735981 #
-139 edge $-1 $161 $181 $72 $140 forward #
-140 intcurve-curve $-1 forward { exactcur nubs 1 open 2
        0 1 6.2111798512166212 1 
        -10.448866784315443 -6.4620014467338489 -6.7945205479452051 
        -10.448866784315445 -6.4620014467338471 -0.58334069672858391 
        0
        null_surface
        null_surface
        nullbs
        nullbs
        I I
        0
        0
        0
        F 0 F 6.2111798512166212 } F 0 F 6.2111798512166212 #
-141 edge $-1 $163 $169 $76 $142 forward #
-142 intcurve-curve $-1 forward { exactcur nubs 1 open 2
        0 1 21.214910101735981 1 
        -10.448866784315445 -9.6921443087124359 -6.7945205479452051 
        -10.448866784315445 -9.6921443087124359 14.420389553790777 
        0
        null_surface
        null_surface
        nullbs
        nullbs
        I I
        0
        0
        0
        F 0 F 21.214910101735981 } F 0 F 21.214910101735981 #
-143 edge $-1 $157 $159 $93 $144 forward #
-144 intcurve-curve $-1 forward { exactcur nubs 1 open 2
        0 1 1.5883764709508346 1 
        -2.5143267821894408 4.0043979407358421 -6.7945205479452042 
        -1.3738988569010946 2.8987922421738563 -6.7945205479452051 
        0
        null_surface
        null_surface
        nullbs
        nullbs
        I I
        0
        0
        0
        F 0 F 1.5883764709508346 } F 0 F 1.5883764709508346 #
-145 edge $-1 $177 $157 $91 $146 forward #
-146 intcurve-curve $-1 forward { exactcur nurbs 2 open 2
        0 2 9.6658793200018494 2 
        -10.448866784315447 4.0043979407358385 0.81110736747137846 0.90264242011358253 
        -2.5143267821894444 4.0043979407358439 -0.98644015675769126 0.76876588011964375 
        -2.5143267821894408 4.0043979407358421 -6.7945205479452042 1 
        0
        null_surface
        null_surface
        nullbs
        nullbs
        I I
        0
        0
        0
        F 0 F 9.6658793200018494 } F 0 F 9.6658793200018494 #
-147 edge $-1 $179 $177 $89 $148 forward #
-148 intcurve-curve $-1 forward { exactcur nurbs 2 open 3
        0 2 2.1616381814003978 1 2.5774284935793048 2 
        -10.448866784315445 0.55667403061592324 1.2038057304581509 1 
        -10.448866784315447 2.0232812583280619 1.2038057304581509 0.94828773608402539 
        -10.448866784315445 3.7243686030949767 0.87654532493761561 0.90840129279496629 
        -10.448866784315447 4.0043979407358385 0.81110736747137846 0.90264242011358253 
        0
        null_surface
        null_surface
        nullbs
        nullbs
        I I
        0
        0
        0
        F 0 F 2.5774284935793048 } F 0 F 2.5774284935793048 #
-149 edge $-1 $179 $183 $87 $150 forward #
-150 intcurve-curve $-1 forward { exactcur nubs 1 open 2
        25.590299938740536 1 30.475720836136453 1 
        -10.448866784315445 0.55667403061592324 1.2038057304581509 
        -6.9412157204323481 -2.8438731839882969 1.2038057304581509 
        0
        null_surface
        null_surface
        nullbs
        nullbs
        I I
        0
        0
        0
        F 25.590299938740536 F 30.475720836136453 } F 25.590299938740536 F 30.475720836136453 #
-151 edge $-1 $183 $159 $85 $152 forward #
-152 intcurve-curve $-1 forward { exactcur nurbs 2 open 2
        0 2 12.243307813581154 2 
        -6.9412157204323481 -2.8438731839882969 1.2038057304581509 1 
        -1.3738988569010946 2.8987922421738563 1.20380573045815 0.70710678118654746 
        -1.3738988569010946 2.8987922421738563 -6.7945205479452051 1 
        0
        null_surface
        null_surface
        nullbs
        nullbs
        I I
        0
        0
        0
        F 0 F 12.243307813581154 } F 0 F 12.243307813581154 #
-153 edge $-1 $181 $179 $102 $154 forward #
-154 intcurve-curve $-1 forward { exactcur nurbs 2 open 3
        0 2 3.1923779404158021 1 5.3540161218161728 2 
        -10.448866784315445 -6.4620014467338471 -0.58334069672858391 0.85585618127244689 
        -10.448866784315443 -4.6189948561242833 0.49024506211957242 0.86543280492162289 
        -10.448866784315445 -0.90993319709619502 1.2038057304581509 0.94828773608402628 
        -10.448866784315445 0.55667403061592324 1.2038057304581509 1 
        0
        null_surface
        null_surface
        nullbs
        nullbs
        I I
        0
        0
        0
        F 0 F 5.3540161218161728 } F 0 F 5.3540161218161728 #
-155 edge $-1 $181 $183 $100 $156 forward #
-156 intcurve-curve $-1 forward { exactcur nurbs 2 open 2
        43.619215132508472 2 48.973231254324645 2 
        -10.448866784315445 -6.4620014467338471 -0.58334069672858391 0.85585618127244678 
        -8.9156219681796784 -4.8804654552867213 1.2038057304581509 0.87191737401567693 
        -6.9412157204323481 -2.8438731839882969 1.2038057304581509 1 
        0
        null_surface
        null_surface
        nullbs
        nullbs
        I I
        0
        0
        0
        F 43.619215132508472 F 48.973231254324645 } F 43.619215132508472 F 48.973231254324645 #
-157 vertex $-1 $143 $158 #
-158 point $-1 -2.5143267821894408 4.0043979407358421 -6.7945205479452042 #
-159 vertex $-1 $115 $160 #
-160 point $-1 -1.3738988569010946 2.8987922421738563 -6.7945205479452051 #
-161 vertex $-1 $117 $162 #
-162 point $-1 -10.448866784315443 -6.462001446733848 -6.7945205479452051 #
-163 vertex $-1 $119 $164 #
-164 point $-1 -10.448866784315445 -9.6921443087124359 -6.7945205479452051 #
-165 vertex $-1 $121 $166 #
-166 point $-1 5.5861095077215639 -9.6921443087124359 -6.7945205479452051 #
-167 vertex $-1 $123 $168 #
-168 point $-1 5.5861095077215639 4.0043979407358439 -6.7945205479452051 #
-169 vertex $-1 $125 $170 #
-170 point $-1 -10.448866784315445 -9.6921443087124359 14.420389553790777 #
-171 vertex $-1 $127 $172 #
-172 point $-1 5.5861095077215639 -9.6921443087124359 14.420389553790777 #
-173 vertex $-1 $129 $174 #
-174 point $-1 5.5861095077215639 4.0043979407358439 14.420389553790777 #
-175 vertex $-1 $131 $176 #
-176 point $-1 -10.448866784315445 4.0043979407358439 14.420389553790777 #
-177 vertex $-1 $137 $178 #
-178 point $-1 -10.448866784315445 4.0043979407358385 0.81110736747137846 #
-179 vertex $-1 $153 $180 #
-180 point $-1 -10.448866784315445 0.55667403061592324 1.2038057304581509 #
-181 vertex $-1 $139 $182 #
-182 point $-1 -10.448866784315445 -6.4620014467338471 -0.58334069672858391 #
-183 vertex $-1 $151 $184 #
-184 point $-1 -6.9412157204323481 -2.8438731839882969 1.2038057304581509 #
End-of-ACIS-data
